# xmcd CD database file generated by libcdaudio 0.99.6
# 
# Track frame offsets:
#       150
#       14643
#       27235
#       38433
#       72180
#       106865
#       121693
#       153023
#       202328
#       242700
#       260468
# 
# Disc length: 3781 seconds
# 
# Revision: 1
# Processed by: cddbd v1.4PL0 Copyright (c) Steve Scherf et al.
# Submitted via: libcdaudio 0.99.6
# 
DISCID=880ec30b
DTITLE=Emmanuel Krivine conducting Sinfonia Varsovia - W.A. Mozart Symp
DTITLE=honies Nos. 26, 29, and 39
DYEAR=1900
DGENRE=
TTITLE0=Symphony No. 26 in E-Flat Major, I Molto Presto
TTITLE1=Symphony No. 26 in E-Flat Major, II Adante
TTITLE2=Symphony No. 26 in E-Flat Major, III Allegro
TTITLE3=Symphony No. 29 in A Major, I Allegro moderato
TTITLE4=Symphony No. 29 in A Major, II Adante
TTITLE5=Symphony No. 29 in A Major, III Menuetto
TTITLE6=Symphony No. 29 in A Major, IV Allegro con spirito
TTITLE7=Symphony No. 39 in E-Flat Major, I Adagio-Allegro
TTITLE8=Symphony No. 39 in E-Flat Major, II Adante con moto
TTITLE9=Symphony No. 39 in E-Flat Major, III Menuetto - Allegretto
TTITLE10=Symphony No. 39 in E-Flat Major, IV Finale - Allegro
EXTD=
EXTT0=
EXTT1=
EXTT2=
EXTT3=
EXTT4=
EXTT5=
EXTT6=
EXTT7=
EXTT8=
EXTT9=
EXTT10=
PLAYORDER=
